<?xml version="1.0" encoding="utf-8"?>
<!-- Generator: Adobe Illustrator 18.1.1, SVG Export Plug-In . SVG Version: 6.00 Build 0)  -->
<!DOCTYPE svg PUBLIC "-//W3C//DTD SVG 1.1//EN" "http://www.w3.org/Graphics/SVG/1.1/DTD/svg11.dtd">
<svg version="1.1" id="Layer_1" xmlns="http://www.w3.org/2000/svg" xmlns:xlink="http://www.w3.org/1999/xlink" x="0px" y="0px"
	 viewBox="0 0 225 225" enable-background="new 0 0 225 225" xml:space="preserve">
<rect fill="#678A53" width="225" height="225"/>
<g>
	<g opacity="0.75">
		<circle fill="#E5D3CB" cx="71.3" cy="36.6" r="3"/>
		<circle fill="#E5D3CB" cx="85.7" cy="44.2" r="8.9"/>
	</g>
	<g>
		<g>
			<path fill="#8C919E" d="M185.9,118.8c0,15.1-11.2,27.7-25.7,29.8c-1.5,0.2-2.9,0.3-4.4,0.3h-25.4c-2.1,0-3.8,1.7-3.8,3.8v25.4
				h-26.4v-25.4c0-15.1,11.2-27.7,25.7-29.8c1.5-0.2,2.9-0.3,4.4-0.3h25.4c2.1,0,3.8-1.7,3.8-3.8c0-2.1-1.7-3.8-3.8-3.8H70.9
				c-16.6,0-30.2-13.5-30.2-30.2c0-15.1,11.2-27.7,25.7-29.8c1.5-0.2,2.9-0.3,4.4-0.3h25.4c2.1,0,3.8-1.7,3.8-3.8V34h26.4v17
				c0,15.1-11.2,27.7-25.7,29.8c-1.5,0.2-2.9,0.3-4.4,0.3H70.9c-2.1,0-3.8,1.7-3.8,3.8c0,2.1,1.7,3.8,3.8,3.8h84.8
				C172.3,88.6,185.9,102.2,185.9,118.8z"/>
		</g>
		<g>
			<g>
				<path fill="#F5F5F5" d="M113.3,162.2c-0.5,0-0.9,0.4-0.9,0.9v5.7c0,0.5,0.4,0.9,0.9,0.9c0.5,0,0.9-0.4,0.9-0.9v-5.7
					C114.2,162.6,113.8,162.2,113.3,162.2z M113.3,172.5c-0.5,0-0.9,0.4-0.9,0.9v4.7h1.9v-4.7C114.2,172.9,113.8,172.5,113.3,172.5z
					"/>
			</g>
			<g>
				<path fill="#F5F5F5" d="M146.3,134.8h-5.6c-0.5,0-0.9,0.4-0.9,0.9c0,0.5,0.4,0.9,0.9,0.9h5.6c0.5,0,0.9-0.4,0.9-0.9
					C147.2,135.2,146.8,134.8,146.3,134.8z M129.6,135.8c0-0.5,0.4-0.9,1-0.9h-0.3c-0.5,0-0.9,0.4-0.9,0.9c0,0.5,0.4,0.9,0.9,0.9
					h0.2C130,136.7,129.6,136.3,129.6,135.8z"/>
			</g>
			<g>
				<path fill="#F5F5F5" d="M145.3,100.9h-5.7c-0.5,0-0.9,0.4-0.9,0.9c0,0.5,0.4,0.9,0.9,0.9h5.7c0.5,0,0.9-0.4,0.9-0.9
					C146.3,101.3,145.9,100.9,145.3,100.9z M135,100.9h-5.7c-0.5,0-0.9,0.4-0.9,0.9c0,0.5,0.4,0.9,0.9,0.9h5.7
					c0.5,0,0.9-0.4,0.9-0.9C135.9,101.3,135.5,100.9,135,100.9z M124.6,100.9h-5.7c-0.5,0-0.9,0.4-0.9,0.9c0,0.5,0.4,0.9,0.9,0.9
					h5.7c0.5,0,0.9-0.4,0.9-0.9C125.5,101.3,125.1,100.9,124.6,100.9z M114.2,100.9h-5.7c-0.5,0-0.9,0.4-0.9,0.9
					c0,0.5,0.4,0.9,0.9,0.9h5.7c0.5,0,0.9-0.4,0.9-0.9C115.2,101.3,114.7,100.9,114.2,100.9z M103.9,100.9h-5.7
					c-0.5,0-0.9,0.4-0.9,0.9c0,0.5,0.4,0.9,0.9,0.9h5.7c0.5,0,0.9-0.4,0.9-0.9C104.8,101.3,104.4,100.9,103.9,100.9z M93.5,100.9
					h-5.7c-0.5,0-0.9,0.4-0.9,0.9c0,0.5,0.4,0.9,0.9,0.9h5.7c0.5,0,0.9-0.4,0.9-0.9C94.4,101.3,94,100.9,93.5,100.9z M70,101.4
					c-0.1,0.1-0.1,0.2-0.1,0.4c0,0.1,0,0.2,0,0.3c0.1-0.1,0.1-0.2,0.1-0.3C70.1,101.7,70.1,101.6,70,101.4z"/>
			</g>
			<g>
				<path fill="#F5F5F5" d="M86.9,67h-5.7c-0.5,0-0.9,0.4-0.9,0.9c0,0.5,0.4,0.9,0.9,0.9h5.7c0.5,0,0.9-0.4,0.9-0.9
					C87.8,67.4,87.4,67,86.9,67z"/>
			</g>
			<g>
				<path fill="#F5F5F5" d="M113.3,34c-0.5,0-0.9,0.4-0.9,0.9v5.7c0,0.5,0.4,0.9,0.9,0.9c0.5,0,0.9-0.4,0.9-0.9v-5.7
					C114.2,34.4,113.8,34,113.3,34z"/>
			</g>
			<g>
				<path fill="#F5F5F5" d="M70,101.4c-0.1-0.3-0.4-0.6-0.8-0.6c-1.8-0.2-3.5-0.7-5.1-1.4c-0.5-0.2-1,0-1.2,0.5
					c-0.2,0.5,0,1,0.4,1.3c1.8,0.8,3.7,1.4,5.7,1.6c0,0,0.1,0,0.1,0c0.4,0,0.7-0.2,0.8-0.6c0.1-0.1,0.1-0.2,0.1-0.3
					C70.1,101.7,70.1,101.6,70,101.4z M60.4,97c-1.4-1.2-2.5-2.6-3.4-4.1c-0.2-0.4-0.8-0.6-1.3-0.3c-0.4,0.3-0.6,0.8-0.3,1.3
					c1,1.7,2.3,3.3,3.8,4.6c0.2,0.2,0.4,0.2,0.6,0.2c0.3,0,0.5-0.1,0.7-0.3C60.8,97.9,60.8,97.3,60.4,97z M55.3,88.8
					c-0.3-1.3-0.5-2.6-0.5-3.9c0-0.5,0-0.9,0.1-1.4c0-0.5-0.3-1-0.9-1c-0.5-0.1-1,0.3-1,0.9c0,0.5-0.1,1-0.1,1.6
					c0,1.5,0.2,2.9,0.5,4.4c0.1,0.4,0.5,0.7,0.9,0.7c0.1,0,0.1,0,0.2,0C55.2,89.8,55.5,89.3,55.3,88.8z M58.5,73.2
					c-0.4-0.3-1-0.3-1.3,0.1c-1.3,1.5-2.3,3.3-3,5.1c-0.2,0.5,0.1,1,0.5,1.2c0.1,0,0.2,0.1,0.3,0.1c0.4,0,0.7-0.2,0.9-0.6
					c0.6-1.7,1.5-3.2,2.7-4.6C58.9,74.2,58.9,73.6,58.5,73.2z M67.4,68.2c-0.1-0.5-0.7-0.8-1.2-0.7c-1.9,0.5-3.7,1.4-5.4,2.5
					c-0.4,0.3-0.5,0.9-0.2,1.3c0.2,0.3,0.5,0.4,0.8,0.4c0.2,0,0.4,0,0.5-0.2c1.5-1,3.1-1.8,4.8-2.2C67.2,69.3,67.5,68.7,67.4,68.2z"
					/>
				<path fill="#F5F5F5" d="M77.5,67.9c0,0.1,0,0.3-0.1,0.4c-0.2,0.3-0.5,0.5-0.9,0.5h-5.7c-0.5,0-0.9-0.4-0.9-0.9s0.4-0.9,0.9-0.9
					h5.7C77,67,77.5,67.4,77.5,67.9z"/>
				<path fill="#F5F5F5" d="M84.1,101.8c0,0.5-0.4,0.9-0.9,0.9h-5.7c-0.5,0-0.9-0.4-0.9-0.9v0c0-0.5,0.4-0.9,0.9-0.9h5.7
					C83.6,100.9,84.1,101.3,84.1,101.8z"/>
			</g>
			<g>
				<path fill="#F5F5F5" d="M112,57.5c-0.5-0.2-1,0-1.3,0.4c-0.8,1.6-1.8,3.1-3.1,4.3c-0.4,0.4-0.4,1,0,1.3c0.2,0.2,0.4,0.3,0.7,0.3
					c0.2,0,0.5-0.1,0.7-0.3c1.4-1.4,2.6-3,3.4-4.8C112.7,58.3,112.5,57.7,112,57.5z M105.4,65.3c-0.3-0.5-0.8-0.6-1.3-0.4
					c-1.6,0.9-3.3,1.5-5,1.8c-0.5,0.1-0.8,0.6-0.8,1.1c0.1,0.5,0.5,0.8,0.9,0.8c0.1,0,0.1,0,0.2,0c2-0.3,3.9-1,5.6-2
					C105.5,66.3,105.7,65.8,105.4,65.3z"/>
				<path fill="#F5F5F5" d="M114.2,45.3v5.7c0,1-0.1,2.1-0.3,3.1c-0.1,0.5-0.5,0.8-0.9,0.8c-0.1,0-0.1,0-0.2,0
					c-0.5-0.1-0.9-0.6-0.8-1.1c0.2-0.9,0.2-1.8,0.2-2.8v-5.7c0-0.3,0.2-0.6,0.4-0.8c0.2-0.1,0.3-0.2,0.6-0.2
					C113.8,44.3,114.2,44.8,114.2,45.3z"/>
				<path fill="#F5F5F5" d="M97.3,67.9c0,0.5-0.4,0.9-0.9,0.9h-4.7c-0.5,0-0.9-0.4-0.9-0.9v0c0-0.5,0.4-0.9,0.9-0.9h4.7
					C96.8,67,97.3,67.4,97.3,67.9z"/>
			</g>
			<g>
				<path fill="#F5F5F5" d="M126.8,136.1c-0.1-0.5-0.7-0.8-1.2-0.7c-1.9,0.5-3.7,1.4-5.4,2.5c-0.4,0.3-0.5,0.9-0.3,1.3
					c0.2,0.3,0.5,0.4,0.8,0.4c0.2,0,0.4,0,0.5-0.2c1.5-1,3.1-1.8,4.8-2.2C126.6,137.1,126.9,136.6,126.8,136.1z M117.9,141.1
					c-0.4-0.3-1-0.3-1.3,0.1c-1.3,1.5-2.3,3.3-3,5.1c-0.2,0.5,0.1,1,0.5,1.2c0.1,0,0.2,0.1,0.3,0.1c0.4,0,0.7-0.2,0.9-0.6
					c0.6-1.7,1.5-3.2,2.7-4.6C118.3,142,118.3,141.4,117.9,141.1z"/>
				<path fill="#F5F5F5" d="M114.3,151.3c0,0.5-0.1,0.9-0.1,1.4v5.7c0,0.5-0.4,0.9-0.9,0.9c-0.5,0-0.9-0.4-0.9-0.9v-5.7
					c0-0.5,0-1,0.1-1.6c0-0.5,0.5-0.9,1-0.9C113.9,150.4,114.3,150.8,114.3,151.3z"/>
				<path fill="#F5F5F5" d="M136.8,135.8c0,0.1,0,0.3-0.1,0.4c-0.2,0.3-0.5,0.5-0.9,0.5h-5.4c-0.5,0-0.9-0.4-0.9-1
					c0-0.5,0.4-0.9,1-0.9h5.4C136.4,134.8,136.8,135.2,136.8,135.8z"/>
			</g>
			<g>
				<path fill="#F5F5F5" d="M164.8,133.2c-0.2-0.5-0.8-0.6-1.3-0.4c-1.6,0.9-3.3,1.5-5,1.8c-0.5,0.1-0.9,0.6-0.8,1.1
					c0.1,0.5,0.5,0.8,0.9,0.8c0.1,0,0.1,0,0.2,0c2-0.3,3.8-1,5.6-2C164.9,134.2,165,133.6,164.8,133.2z M171.4,125.4
					c-0.5-0.2-1,0-1.3,0.4c-0.8,1.6-1.8,3.1-3.1,4.3c-0.4,0.4-0.4,1,0,1.3c0.2,0.2,0.4,0.3,0.7,0.3c0.2,0,0.5-0.1,0.7-0.3
					c1.4-1.4,2.6-3,3.4-4.8C172,126.2,171.8,125.6,171.4,125.4z M172.6,112.9c-0.2-0.5-0.7-0.8-1.2-0.6c-0.5,0.2-0.7,0.7-0.6,1.2
					c0.6,1.7,0.9,3.4,0.9,5.2c0,0.9-0.1,1.9-0.2,2.8c-0.1,0.5,0.2,1,0.8,1.1c0.1,0,0.1,0,0.2,0c0.5,0,0.9-0.3,0.9-0.8
					c0.2-1,0.3-2.1,0.3-3.1C173.6,116.8,173.3,114.8,172.6,112.9z M170.4,108.5c-1.1-1.6-2.5-3.1-4.2-4.2c-0.4-0.3-1-0.2-1.3,0.2
					c-0.3,0.4-0.2,1,0.2,1.3c1.4,1,2.7,2.3,3.7,3.8c0.2,0.3,0.5,0.4,0.8,0.4c0.2,0,0.4-0.1,0.5-0.2
					C170.6,109.5,170.7,108.9,170.4,108.5z"/>
				<path fill="#F5F5F5" d="M162.4,103.2c-0.1,0.4-0.5,0.6-0.9,0.6c-0.1,0-0.2,0-0.3-0.1c-1.7-0.6-3.4-0.9-5.2-1c0,0-0.1,0-0.1,0
					c0,0-0.1,0-0.1,0H150c-0.4,0-0.8-0.3-0.9-0.6c0-0.1-0.1-0.2-0.1-0.3c0-0.5,0.4-0.9,0.9-0.9h5.7c0,0,0.1,0,0.1,0c0,0,0.1,0,0.2,0
					c2,0,4,0.4,5.8,1.1C162.3,102.1,162.6,102.7,162.4,103.2z"/>
				<path fill="#F5F5F5" d="M156.6,135.8c0,0.5-0.4,0.9-0.9,0.9H151c-0.5,0-0.9-0.4-0.9-0.9v0c0-0.5,0.4-0.9,0.9-0.9h4.7
					C156.2,134.8,156.6,135.2,156.6,135.8z"/>
			</g>
		</g>
	</g>
	<g>
		<path fill="#FFFFFF" d="M152.5,86.2C152.4,86.2,152.4,86.2,152.5,86.2C152.4,86.2,152.4,86.2,152.5,86.2
			c-13.2-3.5-24-20.6-18-39.1c0-0.1,0.1-0.2,0.1-0.4c0.4,0.2,1,0.3,1.5,0.5c0.3,0.1,0.7,0.2,1.1,0.2c0.3,0.1,0.7,0.1,1.1,0.2
			c1.5,0.2,3.2,0.3,5,0.3c1.9,0,3.8-0.1,5.3-0.4c1.6-0.2,2.9-0.6,3.8-1c0.9,0.4,2.2,0.7,3.8,1c1.6,0.2,3.4,0.4,5.4,0.4
			c1.8,0,3.5-0.1,5-0.3c0.4-0.1,0.7-0.1,1.1-0.2c0.4-0.1,0.7-0.1,1.1-0.2c0.6-0.1,1.1-0.3,1.5-0.5c0,0.1,0.1,0.2,0.1,0.4
			C176.4,65.5,165.6,82.6,152.5,86.2z"/>
		<path fill="#F47961" d="M169.5,59.7h-34.1c-0.2-3.3,0.1-6.6,0.9-9.9l0.4,0.1c0.4,0.1,0.8,0.1,1.2,0.2c1.7,0.2,3.5,0.3,5.4,0.3
			c2,0,4-0.1,5.7-0.4c1.3-0.2,2.4-0.4,3.4-0.8c1,0.3,2.1,0.6,3.4,0.8c1.7,0.3,3.7,0.4,5.7,0.4c1.9,0,3.7-0.1,5.4-0.3
			c0.4-0.1,0.8-0.1,1.2-0.2c0.1,0,0.3,0,0.4-0.1C169.4,53.1,169.7,56.4,169.5,59.7z"/>
		<path fill="#32ABC6" d="M169.5,59.7c-0.3,4.2-1.5,8.3-3.5,12c-3.2,5.9-8.1,10.1-13.5,11.8c-5.4-1.7-10.3-6-13.5-11.8
			c-2-3.7-3.2-7.8-3.5-12H169.5z"/>
		<rect x="134.2" y="58.6" fill="#FFFFFF" width="36.3" height="2.2"/>
		<rect x="141.8" y="62.7" fill="none" width="22.4" height="17.8"/>
		<text transform="matrix(1 0 0 1 141.8126 75.5151)" fill="#FFFFFF" font-family="'AvenirNext-Bold'" font-size="17">70</text>
		<g>
			<path fill="#FFFFFF" d="M139.2,57.1h-0.8v-5.3h0.8V57.1z"/>
			<path fill="#FFFFFF" d="M140.9,51.8l1.1,3.6v-3.6h0.8v5.3h-0.9l-1.1-3.4v3.4H140v-5.3H140.9z"/>
			<path fill="#FFFFFF" d="M144.2,52.6h-0.8v-0.8h2.5v0.8H145v4.5h-0.8V52.6z"/>
			<path fill="#FFFFFF" d="M146.5,57.1v-5.3h2.3v0.8h-1.5V54h1.1v0.8h-1.1v1.4h1.5v0.8H146.5z"/>
			<path fill="#FFFFFF" d="M150.6,51.8c0.4,0,0.8,0.1,1,0.4c0.2,0.2,0.3,0.5,0.3,0.9v0.8c0,0.4-0.1,0.7-0.4,0.9l0.6,2.3h-0.9l-0.5-2
				c0,0,0,0-0.1,0h-0.5v2h-0.8v-5.3H150.6z M151,53.1c0-0.3-0.2-0.5-0.5-0.5h-0.5v1.7h0.5c0.1,0,0.2,0,0.3-0.1
				c0.1-0.1,0.1-0.2,0.1-0.3V53.1z"/>
			<path fill="#FFFFFF" d="M155,55.8c0,0.4-0.1,0.7-0.3,0.9c-0.1,0.2-0.3,0.3-0.5,0.4c-0.1,0-0.3,0.1-0.4,0.1
				c-0.3,0-0.6-0.1-0.8-0.2c-0.2-0.1-0.3-0.3-0.4-0.5c-0.1-0.2-0.2-0.5-0.2-0.7l0.8-0.1c0,0.3,0.1,0.5,0.2,0.7
				c0.1,0.1,0.2,0.2,0.3,0.1c0.2,0,0.3-0.1,0.4-0.3c0.1-0.1,0.1-0.2,0.1-0.3c0-0.2-0.1-0.4-0.3-0.7c-0.2-0.1-0.4-0.4-0.7-0.7
				c-0.3-0.3-0.5-0.5-0.6-0.7c-0.1-0.2-0.2-0.5-0.2-0.7c0-0.5,0.2-0.8,0.5-1.1c0.2-0.1,0.4-0.2,0.7-0.2c0.3,0,0.5,0.1,0.7,0.2
				c0.2,0.1,0.3,0.2,0.4,0.4c0.1,0.2,0.2,0.4,0.2,0.6l-0.8,0.1c0-0.2-0.1-0.4-0.2-0.5c-0.1-0.1-0.2-0.1-0.3-0.1
				c-0.1,0-0.3,0.1-0.3,0.2c-0.1,0.1-0.1,0.2-0.1,0.4c0,0.2,0.1,0.5,0.3,0.7c0.1,0.1,0.2,0.2,0.4,0.3c0.2,0.2,0.3,0.3,0.4,0.3
				c0.2,0.2,0.4,0.4,0.5,0.6c0,0.1,0.1,0.2,0.1,0.2C155,55.4,155,55.6,155,55.8z"/>
			<path fill="#FFFFFF" d="M156.4,52.6h-0.8v-0.8h2.5v0.8h-0.8v4.5h-0.8V52.6z"/>
			<path fill="#FFFFFF" d="M159,55.9l-0.2,1.2H158l0.9-5.3h1.1l0.9,5.3H160l-0.2-1.2H159z M159.4,53l-0.3,2.1h0.6L159.4,53z"/>
			<path fill="#FFFFFF" d="M161.6,52.6h-0.8v-0.8h2.5v0.8h-0.8v4.5h-0.8V52.6z"/>
			<path fill="#FFFFFF" d="M163.9,57.1v-5.3h2.3v0.8h-1.5V54h1.1v0.8h-1.1v1.4h1.5v0.8H163.9z"/>
		</g>
	</g>
	<polygon fill="#FFFFFF" points="73.5,128.6 71.1,128.6 71.2,122.6 73.4,122.6 	"/>
	<g>
		<path fill="#514854" d="M161.1,79.8v51.1c0,1.6-1.3,2.9-2.9,2.9H68.7c-1.6,0-2.9-1.3-2.9-2.9V79.8c0-1.6,1.3-2.9,2.9-2.9h89.4
			C159.8,76.9,161.1,78.2,161.1,79.8z"/>
		<rect x="74.3" y="93.5" fill="#F6D485" width="77.8" height="32.9"/>
		<polygon fill="#FFFFFF" points="152,112.2 116,114.4 116.9,126.3 106.9,126.3 108.8,102.7 74.3,100.4 74.3,97.7 109,100.2 
			109.5,93.5 114.2,93.5 115.7,111.4 140.8,109.8 139.9,93.5 142.2,93.5 145.1,109.5 152,109.1 		"/>
		<path fill="#D5DBDC" d="M73.3,82.4v45H153v-45H73.3z M152,126.3H74.3v-43H152V126.3z"/>
		<rect x="74.3" y="83.3" fill="#53B9C3" width="77.8" height="10.1"/>
		<path fill="#7DB322" d="M132.8,104.4c-1,1-0.2,2.7-2,3c-1.5,0.2-2.8-0.5-4.1-1.1c-2-1-3.8,0.1-5.9-0.1c-1.5-0.2-3.6-1.5-3.5-3.2
			c0.2-1.7,3.3-1.6,4.4-2.1c1.9-0.9,0-3,1.4-4.3c1.7-1.5,4.4-1.5,6.4-0.9c1,0.3,1.3,1,2.1,1.5c0.8,0.6,2.5,0.7,3.4,0.3
			c1.3,0.5,2.4,1.4,2.9,2.7C139.1,103.1,134.3,102.9,132.8,104.4z"/>
		<polygon fill="#FF8000" points="104.6,124 112,111 119.7,124 112.2,122 		"/>
		<polygon opacity="0.54" fill="#AAB1B3" points="119.7,124 112.2,122 112,111 		"/>
		<path fill="#7DB322" d="M100.9,126.3h-26c0-0.9,0.1-1.9,0.8-2.6c1.2-1.5,3.3-1.3,4.4-2.7c1.1-1.3,0.3-2.9,0.9-4.3
			c0.7-1.5,2.9-1.7,4.3-1.7c3.4-0.1,6.2,2.5,9.5,2.3c1.9-0.1,2.6-0.7,4,1.3c1,1.6,0.4,2.3,0.4,3.9c0.1,1.8,0.7,1.7,1.6,3
			C100.7,125.9,100.8,126.1,100.9,126.3z"/>
		<polygon fill="#DAE2E2" points="152,83.3 152,86.6 77.5,86.6 77.5,126.3 74.3,126.3 74.3,83.3 		"/>
		<path fill="#FF8000" d="M163.1,85.3v6.1c0,1.1-0.9,2-2,2V83.3c0.6,0,1.1,0.2,1.4,0.6C162.9,84.3,163.1,84.8,163.1,85.3z"/>
		<path fill="#FF8000" d="M163.1,98v6.1c0,1.1-0.9,2-2,2V96c0.6,0,1.1,0.2,1.4,0.6C162.9,96.9,163.1,97.4,163.1,98z"/>
		<path fill="#FF8000" d="M63.8,85.3v6.1c0,1.1,0.9,2,2,2V83.3c-0.6,0-1,0.2-1.4,0.6C64,84.3,63.8,84.8,63.8,85.3z"/>
		<path fill="#FF8000" d="M63.8,98v6.1c0,1.1,0.9,2,2,2V96c-0.6,0-1,0.2-1.4,0.6C64,96.9,63.8,97.4,63.8,98z"/>
	</g>
	<g>
		<path fill="#514854" d="M59.6,53.7c0-0.4,0.3-0.7,0.7-0.7h5.2c0.4,0,0.7,0.3,0.7,0.7v10.6c0,0.4-0.3,0.7-0.7,0.7h-5.2
			c-0.4,0-0.7-0.3-0.7-0.7V53.7z"/>
		<path fill="#514854" d="M100.9,53.7c0-0.4,0.3-0.7,0.7-0.7h5.2c0.4,0,0.7,0.3,0.7,0.7v10.6c0,0.4-0.3,0.7-0.7,0.7h-5.2
			c-0.4,0-0.7-0.3-0.7-0.7V53.7z"/>
		<path fill="#F26600" d="M107.3,46.7c0-0.8-1.9-2.5-2.4-3c-0.3-0.3-1.6-1.4-2-1.6c-0.2-0.2-0.3-0.2-0.4-0.3c0.2,0,0.5-0.1,0.7-0.1
			c0.2,0.1,0.2,0.3,0.4,0.3c0.3,0,0.7-0.1,0.9-0.1c0.6-0.1,1.1-0.2,1.7-0.3c0.9-0.2,1.2-1,1.1-1.9c-0.1-0.8-0.9-1.1-1.5-1.1
			c-0.6-0.1-1.5-0.4-2.1,0c-0.9,0.5-0.5,2.2-1.8,1.9c-1-1.9-4.1-6.7-4.4-6.9c-0.3-0.3-1-0.9-1.9-1.1c-1-0.2-10.5-0.7-12.3-0.7
			c-1.8,0-11.3,0.5-12.3,0.7c-1,0.2-1.6,0.8-1.9,1.1c-0.2,0.3-3.3,5-4.4,6.9c-1.3,0.2-1-1.4-1.8-1.9c-0.6-0.4-1.5-0.1-2.1,0
			c-0.6,0.1-1.4,0.3-1.5,1.1c-0.1,0.8,0.2,1.7,1.2,1.9c0.6,0.1,1.1,0.2,1.7,0.3c0.3,0,0.6,0.2,0.9,0.1c0.2-0.1,0.3-0.2,0.4-0.3
			c0.2-0.1,0.4,0,0.6,0.1c0,0.1-0.3,0.3-0.4,0.3c0,0,0,0,0,0c-0.3,0.2-1.3,0.9-1.9,1.5c-0.9,0.9-2.4,2.3-2.4,3.1
			c0,0.8-0.4,1.3-0.3,2.9c0,0.8,0.2,3.1,0.4,5.3c0.2,2.3,0.4,4.5,0.4,4.7c0,0.3-0.1,0.7,0.1,1c0.1,0.3,0.5,0.4,1.1,0.4
			c0.2,0,2.2,0,4.9,0.1c6.5,0.1,17.2,0.2,17.2,0.2s11-0.1,17.4-0.2c2.6,0,4.4,0,4.6-0.1c0.6,0,1-0.1,1.1-0.4c0.1-0.3,0-0.7,0.1-1
			c0-0.2,0.4-4.2,0.7-7.1c0.1-1.3,0.2-2.4,0.2-2.8C107.7,48.1,107.3,47.5,107.3,46.7z M101.7,41.4c-0.4,0-12.7-0.7-18.3-0.6
			c-5.6-0.1-17.9,0.6-18.3,0.6c-0.4,0,4.6-7.7,4.6-7.7l13.7-0.6l13.7,0.6C97.2,33.7,102.1,41.4,101.7,41.4z"/>
		<path opacity="0.32" fill="#B3B3B3" d="M106.6,60.6c-0.2,0.3-0.5,0.4-1.1,0.4c-0.2,0-2,0-4.6,0.1c-6.5,0.1-17.4,0.2-17.4,0.2
			S72.8,61.1,66.3,61c-2.7,0-4.7-0.1-4.9-0.1c-0.6,0-1-0.1-1.1-0.4c-0.2-0.3,0-0.7-0.1-1c0-0.1-0.2-1.6-0.3-3.4
			c0.6,0.7,1.5,1.2,2.6,1.2h42c1,0,1.9-0.5,2.5-1.2c-0.2,1.8-0.3,3.3-0.3,3.4C106.7,59.9,106.8,60.3,106.6,60.6z"/>
		<path fill="#5FC1C8" d="M101.7,41.4c-0.4,0-12.7-0.7-18.3-0.6c-5.6-0.1-17.9,0.6-18.3,0.6c-0.4,0,4.6-7.7,4.6-7.7l13.7-0.6
			l13.7,0.6C97.2,33.7,102.1,41.4,101.7,41.4z"/>
		<path opacity="0.28" fill="#FFFFFF" d="M88.9,34.3l-5.8,5.8c-0.4,0-0.7,0-1.2,0c-1.7,0-3.7,0-5.7,0.1l6-6l1.2,0L88.9,34.3z"/>
		<path fill="#FEEBDC" d="M105.4,49.7c-0.3,1.6-2.4,1.6-3.7,1.6c-1.9,0-3.7,0.4-5.2-1.1h0v0c0-1.5,1.7-2.1,3.3-2.3c0,0,0,0,0.1,0
			c0.1,0,0.3,0,0.4-0.1c0.1,0,0.2,0,0.2,0c0.2,0,0.4-0.1,0.5-0.1c0.1,0,0.3,0,0.4-0.1c0.2,0,0.4,0,0.6-0.1c0.8-0.1,1.5-0.1,2.3-0.1
			c0.8,0,1-0.1,1.2,0.7C105.5,48.6,105.5,49.3,105.4,49.7z"/>
		<path fill="#FEEBDC" d="M61.3,49.7c0.3,1.6,2.4,1.6,3.7,1.6c1.9,0,3.7,0.4,5.2-1.1h0v0c0-1.5-1.7-2.1-3.3-2.3c0,0,0,0-0.1,0
			c-0.1,0-0.3,0-0.4-0.1c-0.1,0-0.2,0-0.2,0c-0.2,0-0.4-0.1-0.5-0.1c-0.1,0-0.3,0-0.4-0.1c-0.2,0-0.4,0-0.6-0.1
			c-0.8-0.1-1.5-0.1-2.3-0.1c-0.8,0-1-0.1-1.2,0.7C61.2,48.6,61.2,49.3,61.3,49.7z"/>
		<circle fill="#FEBF00" cx="64.7" cy="55.2" r="1.7"/>
		<circle fill="#FEBF00" cx="68.2" cy="55.2" r="1.2"/>
		<path fill="#FEBF00" d="M105,55.3c0,0.9-0.8,1.7-1.7,1.7c-0.9,0-1.7-0.8-1.7-1.7c0-0.9,0.8-1.7,1.7-1.7
			C104.3,53.6,105,54.3,105,55.3z"/>
		<circle fill="#FEBF00" cx="99.7" cy="55.3" r="1.2"/>
		<path fill="#768C91" d="M93.7,50.1C93.7,50.1,93.7,50.2,93.7,50.1l-1.4,3.6c-0.2,0.4-0.6,0.7-0.9,0.7H75.6c-0.3,0-0.8-0.3-0.9-0.7
			l-1.4-3.5c0,0,0-0.1,0-0.1H93.7z"/>
		<path fill="#E3E3E3" d="M93.7,49.2H73.2c-0.7,0-1,0.6-0.7,1.3l1.4,3.5c0.3,0.7,1.1,1.3,1.7,1.3h15.7c0.7,0,1.5-0.6,1.7-1.3
			l1.4-3.5C94.7,49.8,94.4,49.2,93.7,49.2z M82.5,54.4h-6.9c-0.3,0-0.8-0.3-0.9-0.7l-1.4-3.5c0,0,0-0.1,0-0.1h7.8
			C82.8,50.1,83.5,54.4,82.5,54.4z M93.6,50.2l-1.4,3.5c-0.2,0.4-0.6,0.7-0.9,0.7h-6.9c-1,0-0.3-4.3,1.4-4.3L93.6,50.2
			C93.7,50.1,93.7,50.2,93.6,50.2z"/>
		<path opacity="0.32" fill="#8B8B8B" d="M93.7,50.1C93.7,50.1,93.7,50.2,93.7,50.1L93.3,51h-6.1c-1.4,0-2.3,1.7-2.7,3.4h-0.1
			c-1,0-0.3-4.3,1.4-4.3H93.7z"/>
		<path opacity="0.32" fill="#8B8B8B" d="M82.5,54.4L82.5,54.4C82,52.7,81,51,79.7,51h-6.1l-0.3-0.8c0,0,0-0.1,0-0.1h7.8
			C82.8,50.1,83.5,54.4,82.5,54.4z"/>
		<path fill="#FF6B00" d="M101.4,42.3c0,1.1-0.2,5.9-18,5.9c-17.8,0-18-4.8-18-5.9c0-1.1,14.3-0.8,18-0.8
			C87.1,41.5,101.4,41.1,101.4,42.3z"/>
		<path opacity="0.28" fill="#FFFFFF" d="M80.1,34.2l-6,6c-1.6,0.1-3.1,0.1-4.5,0.2l6-6L80.1,34.2z"/>
	</g>
	<path fill="#D6CBC0" d="M119.4,70.4c-2.2,2.6-4.8,4.8-7.7,6.5h-43c-0.4,0-0.8,0.1-1.1,0.2c-0.2,0.1-0.3,0.2-0.5,0.3
		c-0.8,0.5-1.3,1.4-1.3,2.4v3.5c-0.6,0-1.1,0.2-1.4,0.6c-0.4,0.4-0.6,0.9-0.6,1.4v6.1c0,1.1,0.9,2,2,2V96c-0.6,0-1.1,0.2-1.4,0.6
		c-0.4,0.4-0.6,0.9-0.6,1.4v6.1c0,1.1,0.9,2,2,2v8.5c-2.3-0.4-4.4-1-6.5-1.9V99.6c-1.1,0-2-0.9-2-2v-6.1c0-0.6,0.2-1.1,0.6-1.4
		c0.4-0.4,0.9-0.6,1.4-0.6V87c-1.1,0-2-0.9-2-2v-6.1c0-0.6,0.2-1.1,0.6-1.4c0.4-0.4,0.9-0.6,1.4-0.6v-3.5c0-1,0.5-1.9,1.3-2.4
		c0.2-0.1,0.3-0.2,0.5-0.3c0.3-0.2,0.7-0.2,1.1-0.2h3.3c0.1,0,0.1,0,0.2,0h5.2c0.1,0,0.1,0,0.2,0h35.8c0.1,0,0.1,0,0.2,0h5.2
		c0.1,0,0.1,0,0.2,0H119.4z"/>
	<path fill="#D6CBC0" d="M167.1,99.5v2.5c0.6,0,1.1,0.2,1.4,0.6c0.4,0.4,0.6,0.9,0.6,1.4v6.1c0,1.1-0.9,2-2,2v24.8
		c0,1.6-1.3,2.9-2.9,2.9H103c1-2.2,2.3-4.2,3.8-6h51.4c1.6,0,2.9-1.3,2.9-2.9v-24.8c1.1,0,2-0.9,2-2V98c0-0.6-0.2-1.1-0.6-1.4
		c-0.4-0.4-0.9-0.6-1.4-0.6v-2.5c1.1,0,2-0.9,2-2v-1.9c2.1,0.5,4.1,1.3,6,2.2v5.7C169.1,98.6,168.2,99.5,167.1,99.5z"/>
</g>
<g>
	<line fill="#69C5C3" x1="225" y1="225" x2="225" y2="0"/>
	<g opacity="0.49">
		<g>
			<path fill="#B2C8BE" d="M247,77.5c-0.1,0.1-0.1,0.1-0.2,0.1l0,0c0,0-0.1,0.1-0.1,0.1c0,0,0,0.1,0.1,0.1c0,0,0,0,0.1,0
				c0,0,0.1,0,0.1,0"/>
		</g>
	</g>
</g>
<g>
	<line fill="#1F4465" x1="0" y1="225" x2="225" y2="225"/>
</g>
<g>
	<path fill="#FF8000" d="M225,225"/>
</g>
<rect x="17.5" y="186" fill="none" width="191" height="43"/>
<text transform="matrix(1 0 0 1 25.876 211.7041)" fill="#FFFFFF" font-family="'AvenirNext-Bold'" font-size="34">EXIT NOW</text>
</svg>
